<svg width="24" height="24" viewBox="0 0 24 24" fill="none" xmlns="http://www.w3.org/2000/svg">
<path d="M13.1573 13.3279H7.8173C6.27166 13.3298 4.78985 13.9446 3.69692 15.0376C2.60398 16.1305 1.98916 17.6123 1.9873 19.1579V20.9379C1.9873 21.0706 2.03998 21.1977 2.13375 21.2915C2.22752 21.3853 2.3547 21.4379 2.4873 21.4379H18.4873C18.6199 21.4379 18.7471 21.3853 18.8409 21.2915C18.9346 21.1977 18.9873 21.0706 18.9873 20.9379V19.1579C18.9857 17.6122 18.371 16.1303 17.278 15.0373C16.185 13.9443 14.703 13.3295 13.1573 13.3279Z" fill="#2251F8"/>
<path d="M10.4868 11.438C12.9721 11.438 14.9868 9.42333 14.9868 6.93805C14.9868 4.45277 12.9721 2.43805 10.4868 2.43805C8.00154 2.43805 5.98682 4.45277 5.98682 6.93805C5.98682 9.42333 8.00154 11.438 10.4868 11.438Z" fill="#2251F8"/>
<path d="M21 10H19.5V8.5C19.5 8.23478 19.3946 7.98043 19.2071 7.79289C19.0196 7.60536 18.7652 7.5 18.5 7.5C18.2348 7.5 17.9804 7.60536 17.7929 7.79289C17.6054 7.98043 17.5 8.23478 17.5 8.5V10H16C15.7348 10 15.4804 10.1054 15.2929 10.2929C15.1054 10.4804 15 10.7348 15 11C15 11.2652 15.1054 11.5196 15.2929 11.7071C15.4804 11.8946 15.7348 12 16 12H17.5V13.5C17.5 13.7652 17.6054 14.0196 17.7929 14.2071C17.9804 14.3946 18.2348 14.5 18.5 14.5C18.7652 14.5 19.0196 14.3946 19.2071 14.2071C19.3946 14.0196 19.5 13.7652 19.5 13.5V12H21C21.2652 12 21.5196 11.8946 21.7071 11.7071C21.8946 11.5196 22 11.2652 22 11C22 10.7348 21.8946 10.4804 21.7071 10.2929C21.5196 10.1054 21.2652 10 21 10Z" fill="#2251F8"/>
</svg>
