<svg width="24" height="24" viewBox="0 0 24 24" fill="none" xmlns="http://www.w3.org/2000/svg">
<path d="M4 5H20C20.7956 5 21.5587 4.78929 22.1213 4.41421C22.6839 4.03914 23 3.53043 23 3C23 2.46957 22.6839 1.96086 22.1213 1.58579C21.5587 1.21071 20.7956 1 20 1H4C3.20435 1 2.44129 1.21071 1.87868 1.58579C1.31607 1.96086 1 2.46957 1 3C1 3.53043 1.31607 4.03914 1.87868 4.41421C2.44129 4.78929 3.20435 5 4 5Z" fill="#FF844B"/>
<path d="M20 9H4C3.20435 9 2.44129 9.21071 1.87868 9.58579C1.31607 9.96086 1 10.4696 1 11C1 11.5304 1.31607 12.0391 1.87868 12.4142C2.44129 12.7893 3.20435 13 4 13H20C20.7956 13 21.5587 12.7893 22.1213 12.4142C22.6839 12.0391 23 11.5304 23 11C23 10.4696 22.6839 9.96086 22.1213 9.58579C21.5587 9.21071 20.7956 9 20 9Z" fill="#FF844B"/>
<path d="M20 17H4C3.20435 17 2.44129 17.2107 1.87868 17.5858C1.31607 17.9609 1 18.4696 1 19C1 19.5304 1.31607 20.0391 1.87868 20.4142C2.44129 20.7893 3.20435 21 4 21H20C20.7956 21 21.5587 20.7893 22.1213 20.4142C22.6839 20.0391 23 19.5304 23 19C23 18.4696 22.6839 17.9609 22.1213 17.5858C21.5587 17.2107 20.7956 17 20 17Z" fill="#FF844B"/>
</svg>
