<svg width="30" height="30" viewBox="0 0 30 30" fill="none" xmlns="http://www.w3.org/2000/svg">
<path d="M25.7293 20.682L20.0478 14.9992L25.7276 9.31819C26.4219 8.62376 26.4219 7.48829 25.7276 6.79357L23.2001 4.26929C22.5059 3.57658 21.3706 3.57658 20.6764 4.26929L14.9963 9.95031L9.31677 4.26929C8.62422 3.57658 7.48727 3.57658 6.79271 4.26929L4.27071 6.79357C3.57643 7.48801 3.57643 8.62348 4.27071 9.31819L9.95053 14.9993L4.27071 20.682C3.57643 21.3765 3.57643 22.5119 4.27071 23.2063L6.79477 25.7289C7.48906 26.4234 8.62595 26.4234 9.3185 25.7289L14.9983 20.0499L20.6778 25.7289C21.3721 26.4234 22.5073 26.4234 23.2053 25.7289L25.7293 23.2063C26.4236 22.5119 26.4236 21.3764 25.7293 20.682Z" fill="white"/>
</svg>
