<svg width="24" height="24" viewBox="0 0 24 24" fill="none" xmlns="http://www.w3.org/2000/svg">
<mask id="path-1-outside-1" maskUnits="userSpaceOnUse" x="1" y="1" width="22" height="22" fill="black">
<rect fill="white" x="1" y="1" width="22" height="22"/>
<path d="M16.9091 3H7.09091C6.00633 3.0013 4.96655 3.43272 4.19963 4.19963C3.43272 4.96653 3.0013 6.00631 3 7.09088V13.6363C3.00119 14.579 3.32735 15.4925 3.9235 16.2228C4.51965 16.953 5.34934 17.4555 6.27273 17.6454V20.1817C6.27271 20.3298 6.3129 20.4752 6.38901 20.6023C6.46513 20.7293 6.57431 20.8333 6.70492 20.9032C6.83553 20.9731 6.98265 21.0062 7.1306 20.999C7.27856 20.9918 7.42178 20.9446 7.545 20.8624L12.2455 17.7272H16.9091C17.9937 17.7259 19.0335 17.2945 19.8004 16.5275C20.5673 15.7606 20.9987 14.7209 21 13.6363V7.09088C20.9987 6.00631 20.5673 4.96653 19.8004 4.19963C19.0335 3.43272 17.9937 3.0013 16.9091 3ZM15.2727 12.8181H8.72727C8.51028 12.8181 8.30217 12.7319 8.14873 12.5785C7.99529 12.425 7.90909 12.2169 7.90909 11.9999C7.90909 11.7829 7.99529 11.5748 8.14873 11.4214C8.30217 11.268 8.51028 11.1818 8.72727 11.1818H15.2727C15.4897 11.1818 15.6978 11.268 15.8513 11.4214C16.0047 11.5748 16.0909 11.7829 16.0909 11.9999C16.0909 12.2169 16.0047 12.425 15.8513 12.5785C15.6978 12.7319 15.4897 12.8181 15.2727 12.8181ZM16.9091 9.54541H7.09091C6.87391 9.54541 6.66581 9.45921 6.51237 9.30577C6.35893 9.15233 6.27273 8.94423 6.27273 8.72723C6.27273 8.51024 6.35893 8.30213 6.51237 8.1487C6.66581 7.99526 6.87391 7.90906 7.09091 7.90906H16.9091C17.1261 7.90906 17.3342 7.99526 17.4876 8.1487C17.6411 8.30213 17.7273 8.51024 17.7273 8.72723C17.7273 8.94423 17.6411 9.15233 17.4876 9.30577C17.3342 9.45921 17.1261 9.54541 16.9091 9.54541Z"/>
</mask>
<path d="M16.9091 3L16.9115 1H16.9091V3ZM7.09091 3V0.999999L7.08851 1L7.09091 3ZM3 7.09088L1 7.08849V7.09088H3ZM3 13.6363H0.999998L1 13.6388L3 13.6363ZM6.27273 17.6454H8.27273V16.0148L6.6756 15.6863L6.27273 17.6454ZM6.27273 20.1817L8.27273 20.182V20.1817H6.27273ZM7.545 20.8624L6.4352 19.1986L6.435 19.1987L7.545 20.8624ZM12.2455 17.7272V15.7272H11.6396L11.1357 16.0633L12.2455 17.7272ZM16.9091 17.7272V19.7272L16.9115 19.7272L16.9091 17.7272ZM21 13.6363L23 13.6387V13.6363H21ZM21 7.09088H23L23 7.08849L21 7.09088ZM7.09091 7.90906V9.90906V7.90906ZM16.9091 1H7.09091V5H16.9091V1ZM7.08851 1C5.47434 1.00194 3.92683 1.64402 2.78543 2.78541L5.61384 5.61384C6.00627 5.22142 6.53833 5.00066 7.0933 5L7.08851 1ZM2.78543 2.78541C1.64403 3.9268 1.00194 5.47431 1 7.08849L5 7.09328C5.00066 6.53831 5.22142 6.00627 5.61384 5.61384L2.78543 2.78541ZM1 7.09088V13.6363H5V7.09088H1ZM1 13.6388C1.00177 15.0416 1.4871 16.4008 2.37418 17.4875L5.47281 14.958C5.16759 14.5841 5.00061 14.1164 5 13.6338L1 13.6388ZM2.37418 17.4875C3.26126 18.5742 4.49585 19.3218 5.86986 19.6044L6.6756 15.6863C6.20283 15.5891 5.77804 15.3319 5.47281 14.958L2.37418 17.4875ZM4.27273 17.6454V20.1817H8.27273V17.6454H4.27273ZM4.27273 20.1814C4.27265 20.6916 4.41109 21.1923 4.67327 21.63L8.10476 19.5745C8.2147 19.7581 8.27276 19.968 8.27273 20.182L4.27273 20.1814ZM4.67327 21.63C4.93545 22.0677 5.31153 22.426 5.76139 22.6667L7.64844 19.1398C7.8371 19.2407 7.99481 19.391 8.10476 19.5745L4.67327 21.63ZM5.76139 22.6667C6.21126 22.9074 6.71803 23.0214 7.22764 22.9967L7.03357 19.0014C7.24728 18.991 7.45979 19.0388 7.64844 19.1398L5.76139 22.6667ZM7.22764 22.9967C7.73724 22.9719 8.23057 22.8093 8.65499 22.5261L6.435 19.1987C6.61299 19.08 6.81987 19.0118 7.03357 19.0014L7.22764 22.9967ZM8.6548 22.5263L13.3553 19.391L11.1357 16.0633L6.4352 19.1986L8.6548 22.5263ZM12.2455 19.7272H16.9091V15.7272H12.2455V19.7272ZM16.9115 19.7272C18.5257 19.7252 20.0732 19.0832 21.2146 17.9418L18.3862 15.1133C17.9937 15.5058 17.4617 15.7265 16.9067 15.7272L16.9115 19.7272ZM21.2146 17.9418C22.356 16.8004 22.9981 15.2529 23 13.6387L19 13.6339C18.9993 14.1889 18.7786 14.7209 18.3862 15.1133L21.2146 17.9418ZM23 13.6363V7.09088H19V13.6363H23ZM23 7.08849C22.9981 5.47431 22.356 3.9268 21.2146 2.78541L18.3862 5.61384C18.7786 6.00627 18.9993 6.53831 19 7.09328L23 7.08849ZM21.2146 2.78541C20.0732 1.64402 18.5257 1.00194 16.9115 1L16.9067 5C17.4617 5.00066 17.9937 5.22142 18.3862 5.61384L21.2146 2.78541ZM15.2727 10.8181H8.72727V14.8181H15.2727V10.8181ZM8.72727 10.8181C9.04071 10.8181 9.34131 10.9426 9.56294 11.1643L6.73452 13.9927C7.26303 14.5212 7.97985 14.8181 8.72727 14.8181V10.8181ZM9.56294 11.1643C9.78457 11.3859 9.90909 11.6865 9.90909 11.9999H5.90909C5.90909 12.7474 6.20601 13.4642 6.73452 13.9927L9.56294 11.1643ZM9.90909 11.9999C9.90909 12.3134 9.78457 12.614 9.56294 12.8356L6.73452 10.0072C6.20601 10.5357 5.90909 11.2525 5.90909 11.9999H9.90909ZM9.56294 12.8356C9.34131 13.0573 9.04071 13.1818 8.72727 13.1818V9.18176C7.97985 9.18176 7.26303 9.47867 6.73452 10.0072L9.56294 12.8356ZM8.72727 13.1818H15.2727V9.18176H8.72727V13.1818ZM15.2727 13.1818C14.9593 13.1818 14.6587 13.0573 14.4371 12.8356L17.2655 10.0072C16.737 9.47867 16.0202 9.18176 15.2727 9.18176V13.1818ZM14.4371 12.8356C14.2154 12.614 14.0909 12.3134 14.0909 11.9999H18.0909C18.0909 11.2525 17.794 10.5357 17.2655 10.0072L14.4371 12.8356ZM14.0909 11.9999C14.0909 11.6865 14.2154 11.3859 14.4371 11.1643L17.2655 13.9927C17.794 13.4642 18.0909 12.7474 18.0909 11.9999H14.0909ZM14.4371 11.1643C14.6587 10.9426 14.9593 10.8181 15.2727 10.8181V14.8181C16.0202 14.8181 16.737 14.5212 17.2655 13.9927L14.4371 11.1643ZM16.9091 7.54541H7.09091V11.5454H16.9091V7.54541ZM7.09091 7.54541C7.40434 7.54541 7.70494 7.66992 7.92658 7.89155L5.09816 10.72C5.62667 11.2485 6.34348 11.5454 7.09091 11.5454V7.54541ZM7.92658 7.89155C8.14821 8.11319 8.27273 8.41379 8.27273 8.72723H4.27273C4.27273 9.47467 4.56965 10.1915 5.09816 10.72L7.92658 7.89155ZM8.27273 8.72723C8.27273 9.04068 8.14821 9.34128 7.92658 9.56291L5.09816 6.73448C4.56965 7.26299 4.27273 7.9798 4.27273 8.72723H8.27273ZM7.92658 9.56291C7.70494 9.78455 7.40434 9.90906 7.09091 9.90906V5.90906C6.34348 5.90906 5.62667 6.20597 5.09816 6.73448L7.92658 9.56291ZM7.09091 9.90906H16.9091V5.90906H7.09091V9.90906ZM16.9091 9.90906C16.5957 9.90906 16.2951 9.78455 16.0734 9.56291L18.9018 6.73448C18.3733 6.20597 17.6565 5.90906 16.9091 5.90906V9.90906ZM16.0734 9.56291C15.8518 9.34128 15.7273 9.04067 15.7273 8.72723H19.7273C19.7273 7.97981 19.4304 7.26299 18.9018 6.73448L16.0734 9.56291ZM15.7273 8.72723C15.7273 8.41379 15.8518 8.11319 16.0734 7.89155L18.9018 10.72C19.4304 10.1915 19.7273 9.47466 19.7273 8.72723H15.7273ZM16.0734 7.89155C16.2951 7.66992 16.5957 7.54541 16.9091 7.54541V11.5454C17.6565 11.5454 18.3733 11.2485 18.9018 10.72L16.0734 7.89155Z" fill="#6F96AA" mask="url(#path-1-outside-1)"/>
</svg>
