<svg width="32" height="32" viewBox="0 0 32 32" fill="none" xmlns="http://www.w3.org/2000/svg">
<path d="M23.9974 28H21.3307C20.9771 28 20.638 27.8595 20.3879 27.6095C20.1379 27.3594 19.9974 27.0203 19.9974 26.6667C19.9974 26.313 20.1379 25.9739 20.3879 25.7239C20.638 25.4738 20.9771 25.3333 21.3307 25.3333H22.6641V6.66667H9.33073V25.3333H15.9974C16.351 25.3333 16.6902 25.4738 16.9402 25.7239C17.1903 25.9739 17.3307 26.313 17.3307 26.6667C17.3307 27.0203 17.1903 27.3594 16.9402 27.6095C16.6902 27.8595 16.351 28 15.9974 28H7.9974C7.64377 28 7.30464 27.8595 7.05459 27.6095C6.80454 27.3594 6.66406 27.0203 6.66406 26.6667V5.33333C6.66406 4.97971 6.80454 4.64057 7.05459 4.39052C7.30464 4.14048 7.64377 4 7.9974 4H23.9974C24.351 4 24.6902 4.14048 24.9402 4.39052C25.1903 4.64057 25.3307 4.97971 25.3307 5.33333V26.6667C25.3307 27.0203 25.1903 27.3594 24.9402 27.6095C24.6902 27.8595 24.351 28 23.9974 28Z" fill="#6F96AA"/>
<path d="M19.9974 12.0025H11.9974C11.6438 12.0025 11.3046 11.862 11.0546 11.6119C10.8045 11.3619 10.6641 11.0227 10.6641 10.6691C10.6641 10.3155 10.8045 9.97636 11.0546 9.72631C11.3046 9.47626 11.6438 9.33578 11.9974 9.33578H19.9974C20.351 9.33578 20.6902 9.47626 20.9402 9.72631C21.1903 9.97636 21.3307 10.3155 21.3307 10.6691C21.3307 11.0227 21.1903 11.3619 20.9402 11.6119C20.6902 11.862 20.351 12.0025 19.9974 12.0025ZM19.9974 17.3358H11.9974C11.6438 17.3358 11.3046 17.1953 11.0546 16.9453C10.8045 16.6952 10.6641 16.3561 10.6641 16.0025C10.6641 15.6488 10.8045 15.3097 11.0546 15.0596C11.3046 14.8096 11.6438 14.6691 11.9974 14.6691H19.9974C20.351 14.6691 20.6902 14.8096 20.9402 15.0596C21.1903 15.3097 21.3307 15.6488 21.3307 16.0025C21.3307 16.3561 21.1903 16.6952 20.9402 16.9453C20.6902 17.1953 20.351 17.3358 19.9974 17.3358ZM19.9974 22.6691H11.9974C11.6438 22.6691 11.3046 22.5286 11.0546 22.2786C10.8045 22.0285 10.6641 21.6894 10.6641 21.3358C10.6641 20.9822 10.8045 20.643 11.0546 20.393C11.3046 20.1429 11.6438 20.0025 11.9974 20.0025H19.9974C20.351 20.0025 20.6902 20.1429 20.9402 20.393C21.1903 20.643 21.3307 20.9822 21.3307 21.3358C21.3307 21.6894 21.1903 22.0285 20.9402 22.2786C20.6902 22.5286 20.351 22.6691 19.9974 22.6691Z" fill="#6F96AA"/>
</svg>
