<svg width="56" height="56" viewBox="0 0 56 56" fill="none" xmlns="http://www.w3.org/2000/svg">
<path fill-rule="evenodd" clip-rule="evenodd" d="M28 56C43.464 56 56 43.464 56 28C56 12.536 43.464 0 28 0C12.536 0 0 12.536 0 28C0 43.464 12.536 56 28 56ZM19.35 44.6C20.15 45.1333 21.3167 45.3667 22.85 45.3L24.45 45.2C31.05 44.7667 34.35 41.25 34.35 34.65V13.35C34.35 12.1833 33.9833 11.25 33.25 10.55C32.55 9.85 31.6167 9.5 30.45 9.5C29.2833 9.5 28.3333 9.85 27.6 10.55C26.8667 11.25 26.5 12.1833 26.5 13.35V34.75C26.5 37.4833 25.3 38.9 22.9 39L21.3 39.1C20.2333 39.1667 19.45 39.45 18.95 39.95C18.45 40.4167 18.2 41.15 18.2 42.15C18.2 43.25 18.5833 44.0667 19.35 44.6Z" fill="#2251F8"/>
</svg>
