<svg width="16" height="16" viewBox="0 0 16 16" fill="none" xmlns="http://www.w3.org/2000/svg">
<g clip-path="url(#clip0)">
<path d="M14.6344 6.64689H9.5375V1.36564C9.5375 0.609387 8.925 -0.00311279 8.16875 -0.00311279C7.4125 -0.00311279 6.8 0.609387 6.8 1.36564V6.64689H1.3625C0.6125 6.64689 0 7.25939 0 8.01564C0 8.77189 0.6125 9.38439 1.36875 9.38439H6.80625V14.6344C6.80625 15.3906 7.41875 16.0031 8.175 16.0031C8.93125 16.0031 9.54375 15.3906 9.54375 14.6344V9.38439H14.6406C15.3969 9.38439 16.0094 8.77189 16.0094 8.01564C16 7.25939 15.3906 6.64689 14.6344 6.64689Z" fill="white"/>
</g>
<defs>
<clipPath id="clip0">
<rect width="16" height="16" fill="white"/>
</clipPath>
</defs>
</svg>
