<svg width="28" height="28" viewBox="0 0 28 28" fill="none" xmlns="http://www.w3.org/2000/svg">
<path d="M25.6036 17.2333L25.6032 17.2331L24.0679 16.3476L23.7596 16.1698L23.8266 15.8203C24.0573 14.6169 24.0573 13.3807 23.8266 12.1773L23.7595 11.8274L24.0684 11.6497L25.6032 10.7668C25.6033 10.7668 25.6034 10.7667 25.6035 10.7667C25.6793 10.7229 25.7457 10.6647 25.799 10.5952C25.8523 10.5257 25.8915 10.4464 25.9141 10.3617C25.9368 10.2771 25.9425 10.1888 25.9311 10.102C25.9196 10.0151 25.8911 9.93134 25.8472 9.8555L25.847 9.85513L23.5137 5.8138L23.513 5.81268C23.4694 5.7367 23.4113 5.67006 23.3419 5.61656C23.2725 5.56307 23.1933 5.52378 23.1087 5.50093C23.0241 5.47809 22.9359 5.47214 22.849 5.48342C22.7623 5.49467 22.6787 5.52286 22.6029 5.56637C22.6027 5.56647 22.6025 5.56658 22.6024 5.56668L21.069 6.45286L20.7633 6.62957L20.4945 6.40051C19.5613 5.60517 18.4898 4.98824 17.3334 4.58051L16.9997 4.46283V4.10896V2.33329C16.9997 2.15648 16.9294 1.98691 16.8044 1.86189M25.6036 17.2333L16.8044 1.86189M25.6036 17.2333C25.6797 17.2771 25.7464 17.3355 25.7999 17.4051C25.8533 17.4747 25.8925 17.5542 25.9152 17.639C25.9379 17.7238 25.9436 17.8122 25.932 17.8992C25.9204 17.9862 25.8917 18.0701 25.8476 18.146L25.847 18.1471L23.5137 22.1885L23.5136 22.1885C23.4254 22.3413 23.2803 22.4529 23.1101 22.4989C22.9385 22.5437 22.7563 22.5197 22.6022 22.432C22.6019 22.4318 22.6015 22.4316 22.6011 22.4314L21.069 21.5459L20.7632 21.3691L20.4944 21.5983C19.5613 22.3941 18.4898 23.0114 17.3333 23.4195L16.9997 23.5372V23.891V25.6666C16.9997 25.8434 16.9294 26.013 16.8044 26.138C16.6794 26.2631 16.5098 26.3333 16.333 26.3333H11.6663C11.4895 26.3333 11.32 26.2631 11.1949 26.138C11.0699 26.013 10.9997 25.8434 10.9997 25.6666V23.891V23.5374L10.6663 23.4195C9.50966 23.0108 8.43811 22.3927 7.50516 21.5962L7.23635 21.3667L6.93032 21.5436L5.39856 22.4288C5.39817 22.4291 5.39778 22.4293 5.39739 22.4295C5.24313 22.5171 5.06079 22.5412 4.88909 22.4965C4.71891 22.4505 4.57387 22.3389 4.48573 22.1862L4.48568 22.1861L2.15235 18.1448L2.15214 18.1444C2.10826 18.0686 2.07977 17.9848 2.06829 17.898L1.5726 17.9635L2.06829 17.898C2.0568 17.8111 2.06256 17.7228 2.08522 17.6382C2.10788 17.5535 2.14701 17.4742 2.20036 17.4047C2.25371 17.3352 2.32024 17.2769 2.39614 17.2331L3.93098 16.3502L4.23982 16.1726L4.17273 15.8226C3.942 14.6193 3.942 13.383 4.17273 12.1796L4.23974 11.8301L3.93148 11.6523L2.39615 10.7668L2.39571 10.7666C2.31963 10.7228 2.25294 10.6644 2.19947 10.5948C2.14601 10.5252 2.10681 10.4457 2.08414 10.3609C2.06147 10.2761 2.05577 10.1877 2.06736 10.1007C2.07896 10.0137 2.10762 9.92982 2.15171 9.85391L2.15235 9.8528L4.48568 5.81147L4.4859 5.8111C4.52962 5.73523 4.58785 5.66871 4.65728 5.61536C4.72672 5.562 4.80598 5.52284 4.89055 5.50012C4.97511 5.4774 5.06333 5.47156 5.15015 5.48294C5.23689 5.49431 5.32054 5.52263 5.39634 5.5663C5.39641 5.56635 5.39649 5.56639 5.39656 5.56643L6.93007 6.45388L7.23599 6.63093L7.50494 6.40158C8.43807 5.60584 9.5096 4.98854 10.6661 4.58047L10.9997 4.46274M25.6036 17.2333L10.9997 4.46274M16.8044 1.86189C16.6794 1.73686 16.5098 1.66663 16.333 1.66663H11.6663C11.4895 1.66663 11.32 1.73686 11.1949 1.86189M16.8044 1.86189L11.1949 1.86189M11.1949 1.86189C11.0699 1.98691 10.9997 2.15648 10.9997 2.33329V4.10896M11.1949 1.86189L10.9997 4.10896M11.1949 1.86189L10.8414 1.50833L11.1949 1.86189ZM10.9997 4.46274V4.10896M10.9997 4.46274V4.10896M13.9997 20.3333H14.0003C15.6792 20.3313 17.2888 19.6634 18.476 18.4763C19.6632 17.2891 20.331 15.6795 20.333 14.0006V14C20.333 12.7473 19.9616 11.5229 19.2656 10.4813C18.5697 9.43984 17.5806 8.62808 16.4233 8.14872C15.2661 7.66937 13.9926 7.54395 12.7641 7.78832C11.5356 8.03269 10.4071 8.63588 9.52133 9.52162C8.6356 10.4073 8.03241 11.5358 7.78803 12.7644C7.54366 13.9929 7.66908 15.2664 8.14844 16.4236C8.62779 17.5809 9.43955 18.57 10.4811 19.2659C11.5226 19.9619 12.7471 20.3333 13.9997 20.3333Z" fill="#6F96AA" stroke="white"/>
</svg>
