<svg width="28" height="28" viewBox="0 0 28 28" fill="none" xmlns="http://www.w3.org/2000/svg">
<path d="M25.853 16.8L24.3177 15.9145C24.5603 14.6489 24.5603 13.3487 24.3177 12.0831L25.853 11.2C25.9858 11.1234 26.1023 11.0213 26.1956 10.8997C26.289 10.778 26.3575 10.6392 26.3971 10.4911C26.4368 10.3429 26.4468 10.1885 26.4268 10.0364C26.4067 9.88442 26.3568 9.73786 26.28 9.60513L23.9467 5.56379C23.8704 5.43082 23.7686 5.3142 23.6472 5.22059C23.5258 5.12698 23.3871 5.05822 23.2391 5.01824C23.0911 4.97825 22.9366 4.96784 22.7846 4.98758C22.6326 5.00732 22.4859 5.05684 22.353 5.13329L20.8188 6.01996C19.839 5.18486 18.7139 4.53708 17.4997 4.10896V2.33329C17.4997 2.02387 17.3768 1.72713 17.158 1.50833C16.9392 1.28954 16.6424 1.16663 16.333 1.16663H11.6663C11.3569 1.16663 11.0602 1.28954 10.8414 1.50833C10.6226 1.72713 10.4997 2.02387 10.4997 2.33329V4.10896C9.2854 4.53744 8.16029 5.18561 7.18051 6.02113L5.64634 5.13329C5.51359 5.05674 5.36706 5.00709 5.21512 4.98718C5.06318 4.96727 4.9088 4.97748 4.76081 5.01724C4.61282 5.057 4.47411 5.12553 4.35261 5.21891C4.2311 5.31229 4.12918 5.42869 4.05267 5.56146L1.71934 9.60279C1.64219 9.73562 1.59204 9.88238 1.57175 10.0346C1.55146 10.1869 1.56143 10.3417 1.60111 10.4901C1.64078 10.6385 1.70937 10.7776 1.80293 10.8994C1.8965 11.0212 2.0132 11.1234 2.14634 11.2L3.68167 12.0855C3.43902 13.351 3.43902 14.6512 3.68167 15.9168L2.14634 16.8C2.01351 16.8766 1.89708 16.9786 1.80372 17.1002C1.71036 17.2219 1.64189 17.3607 1.60223 17.5089C1.56257 17.657 1.5525 17.8115 1.5726 17.9635C1.59269 18.1155 1.64256 18.2621 1.71934 18.3948L4.05267 22.4361C4.20731 22.7041 4.46204 22.8996 4.76084 22.9798C5.05991 23.0582 5.3778 23.0163 5.64634 22.8631L7.18051 21.9765C8.1601 22.8128 9.28522 23.4618 10.4997 23.891V25.6666C10.4997 25.976 10.6226 26.2728 10.8414 26.4916C11.0602 26.7104 11.3569 26.8333 11.6663 26.8333H16.333C16.6424 26.8333 16.9392 26.7104 17.158 26.4916C17.3768 26.2728 17.4997 25.976 17.4997 25.6666V23.891C18.714 23.4625 19.8391 22.8143 20.8188 21.9788L22.353 22.8655C22.6215 23.0189 22.9395 23.0608 23.2385 22.9821C23.5373 22.902 23.792 22.7064 23.9467 22.4385L26.28 18.3971C26.3572 18.2643 26.4073 18.1175 26.4276 17.9653C26.4479 17.813 26.4379 17.6583 26.3982 17.5099C26.3586 17.3615 26.29 17.2224 26.1964 17.1005C26.1029 16.9787 25.9861 16.8766 25.853 16.8ZM13.9997 19.8333C12.846 19.8333 11.7181 19.4912 10.7588 18.8502C9.79956 18.2092 9.05189 17.2982 8.61038 16.2323C8.16887 15.1664 8.05335 13.9935 8.27843 12.8619C8.50351 11.7304 9.05908 10.691 9.87489 9.87517C10.6907 9.05936 11.7301 8.50379 12.8616 8.27871C13.9932 8.05363 15.1661 8.16915 16.232 8.61066C17.2979 9.05217 18.2089 9.79985 18.8499 10.7591C19.4909 11.7184 19.833 12.8462 19.833 14C19.8312 15.5465 19.216 17.0291 18.1224 18.1227C17.0289 19.2163 15.5462 19.8314 13.9997 19.8333Z" fill="#717579"/>
</svg>
