<svg width="32" height="32" viewBox="0 0 32 32" fill="none" xmlns="http://www.w3.org/2000/svg">
<path d="M18.6668 13.3333H21.3335C21.6871 13.3333 22.0263 13.1928 22.2763 12.9428C22.5264 12.6928 22.6668 12.3536 22.6668 12C22.6668 11.6464 22.5264 11.3072 22.2763 11.0572C22.0263 10.8071 21.6871 10.6667 21.3335 10.6667H18.6668C18.3132 10.6667 17.9741 10.8071 17.724 11.0572C17.474 11.3072 17.3335 11.6464 17.3335 12C17.3335 12.3536 17.474 12.6928 17.724 12.9428C17.9741 13.1928 18.3132 13.3333 18.6668 13.3333ZM22.6668 20C22.6668 19.6464 22.5264 19.3072 22.2763 19.0572C22.0263 18.8071 21.6871 18.6667 21.3335 18.6667H18.6668C18.3132 18.6667 17.9741 18.8071 17.724 19.0572C17.474 19.3072 17.3335 19.6464 17.3335 20C17.3335 20.3536 17.474 20.6927 17.724 20.9428C17.9741 21.1928 18.3132 21.3333 18.6668 21.3333H21.3335C21.6871 21.3333 22.0263 21.1928 22.2763 20.9428C22.5264 20.6927 22.6668 20.3536 22.6668 20Z" fill="#6F96AA"/>
<path d="M25.3335 4H6.66683C6.31321 4 5.97407 4.14048 5.72402 4.39052C5.47397 4.64057 5.3335 4.97971 5.3335 5.33333V26.6667C5.3335 27.0203 5.47397 27.3594 5.72402 27.6095C5.97407 27.8595 6.31321 28 6.66683 28H16.0002C16.3538 28 16.6929 27.8595 16.943 27.6095C17.193 27.3594 17.3335 27.0203 17.3335 26.6667C17.3335 26.313 17.193 25.9739 16.943 25.7239C16.6929 25.4738 16.3538 25.3333 16.0002 25.3333H8.00016V6.66667H24.0002V25.3333H21.3335C20.9799 25.3333 20.6407 25.4738 20.3907 25.7239C20.1406 25.9739 20.0002 26.313 20.0002 26.6667C20.0002 27.0203 20.1406 27.3594 20.3907 27.6095C20.6407 27.8595 20.9799 28 21.3335 28H25.3335C25.6871 28 26.0263 27.8595 26.2763 27.6095C26.5264 27.3594 26.6668 27.0203 26.6668 26.6667V5.33333C26.6668 4.97971 26.5264 4.64057 26.2763 4.39052C26.0263 4.14048 25.6871 4 25.3335 4Z" fill="#6F96AA"/>
<path d="M15.6136 9.71999C15.4896 9.59502 15.3422 9.49583 15.1797 9.42813C15.0172 9.36044 14.8429 9.32559 14.6669 9.32559C14.4909 9.32559 14.3166 9.36044 14.1541 9.42813C13.9917 9.49583 13.8442 9.59502 13.7202 9.71999L12.0002 11.4533L11.6136 11.0533C11.3625 10.8023 11.022 10.6612 10.6669 10.6612C10.3118 10.6612 9.97132 10.8023 9.72025 11.0533C9.46918 11.3044 9.32813 11.6449 9.32812 12C9.32812 12.1758 9.36275 12.3499 9.43003 12.5123C9.49732 12.6748 9.59593 12.8223 9.72025 12.9467L11.0536 14.28C11.1775 14.405 11.325 14.5042 11.4875 14.5718C11.65 14.6395 11.8242 14.6744 12.0002 14.6744C12.1763 14.6744 12.3505 14.6395 12.513 14.5718C12.6755 14.5042 12.823 14.405 12.9469 14.28L15.6136 11.6133C15.7386 11.4894 15.8377 11.3419 15.9054 11.1794C15.9731 11.0169 16.008 10.8427 16.008 10.6667C16.008 10.4906 15.9731 10.3164 15.9054 10.1539C15.8377 9.99141 15.7386 9.84394 15.6136 9.71999ZM13.7202 17.72L12.0002 19.4533L11.6136 19.0533C11.3625 18.8023 11.022 18.6612 10.6669 18.6612C10.3118 18.6612 9.97132 18.8023 9.72025 19.0533C9.46918 19.3044 9.32812 19.6449 9.32812 20C9.32812 20.1758 9.36275 20.3499 9.43003 20.5123C9.49732 20.6748 9.59593 20.8223 9.72025 20.9467L11.0536 22.28C11.1775 22.405 11.325 22.5042 11.4875 22.5718C11.65 22.6395 11.8242 22.6744 12.0002 22.6744C12.1763 22.6744 12.3505 22.6395 12.513 22.5718C12.6755 22.5042 12.823 22.405 12.9469 22.28L15.6136 19.6133C15.8647 19.3623 16.0057 19.0217 16.0057 18.6667C16.0057 18.3116 15.8647 17.9711 15.6136 17.72C15.3625 17.4689 15.022 17.3279 14.6669 17.3279C14.3118 17.3279 13.9713 17.4689 13.7202 17.72Z" fill="#6F96AA"/>
</svg>
