<svg width="24" height="25" viewBox="0 0 24 25" fill="none" xmlns="http://www.w3.org/2000/svg">
<path fill-rule="evenodd" clip-rule="evenodd" d="M8.99966 16.5H7.20966C5.10366 16.5 3.20366 14.965 3.01666 12.866C2.80366 10.496 4.67266 8.5 6.99966 8.5H8.99966C9.55166 8.5 9.99966 8.053 9.99966 7.5C9.99966 6.947 9.55166 6.5 8.99966 6.5H7.20866C4.15966 6.5 1.43866 8.687 1.05066 11.711C0.581663 15.369 3.43166 18.5 6.99966 18.5H8.99966C9.55166 18.5 9.99966 18.053 9.99966 17.5C9.99966 16.947 9.55166 16.5 8.99966 16.5ZM7.99966 12.5C7.99966 13.053 8.44766 13.5 8.99966 13.5H14.9997C15.5517 13.5 15.9997 13.053 15.9997 12.5C15.9997 11.947 15.5517 11.5 14.9997 11.5H8.99966C8.44766 11.5 7.99966 11.947 7.99966 12.5ZM16.7588 6.5002C19.8258 6.5002 22.5778 8.6972 22.9528 11.7422C23.4018 15.3882 20.5578 18.5002 16.9998 18.5002H14.9998C14.4478 18.5002 13.9998 18.0532 13.9998 17.5002C13.9998 16.9472 14.4478 16.5002 14.9998 16.5002H16.9998C19.3268 16.5002 21.1958 14.5042 20.9828 12.1342C20.7958 10.0352 18.8958 8.5002 16.7888 8.5002H14.9998C14.4478 8.5002 13.9998 8.0532 13.9998 7.5002C13.9998 6.9472 14.4428 6.5002 15.2488 6.5002H16.7588Z" fill="#8F9BB3"/>
<mask id="mask0" style="mask-type:alpha" maskUnits="userSpaceOnUse" x="1" y="6" width="22" height="13">
<path fill-rule="evenodd" clip-rule="evenodd" d="M8.99966 16.5H7.20966C5.10366 16.5 3.20366 14.965 3.01666 12.866C2.80366 10.496 4.67266 8.5 6.99966 8.5H8.99966C9.55166 8.5 9.99966 8.053 9.99966 7.5C9.99966 6.947 9.55166 6.5 8.99966 6.5H7.20866C4.15966 6.5 1.43866 8.687 1.05066 11.711C0.581663 15.369 3.43166 18.5 6.99966 18.5H8.99966C9.55166 18.5 9.99966 18.053 9.99966 17.5C9.99966 16.947 9.55166 16.5 8.99966 16.5ZM7.99966 12.5C7.99966 13.053 8.44766 13.5 8.99966 13.5H14.9997C15.5517 13.5 15.9997 13.053 15.9997 12.5C15.9997 11.947 15.5517 11.5 14.9997 11.5H8.99966C8.44766 11.5 7.99966 11.947 7.99966 12.5ZM16.7588 6.5002C19.8258 6.5002 22.5778 8.6972 22.9528 11.7422C23.4018 15.3882 20.5578 18.5002 16.9998 18.5002H14.9998C14.4478 18.5002 13.9998 18.0532 13.9998 17.5002C13.9998 16.9472 14.4478 16.5002 14.9998 16.5002H16.9998C19.3268 16.5002 21.1958 14.5042 20.9828 12.1342C20.7958 10.0352 18.8958 8.5002 16.7888 8.5002H14.9998C14.4478 8.5002 13.9998 8.0532 13.9998 7.5002C13.9998 6.9472 14.4428 6.5002 15.2488 6.5002H16.7588Z" fill="white"/>
</mask>
<g mask="url(#mask0)">
<path fill-rule="evenodd" clip-rule="evenodd" d="M16.2528 16.3585C17.1194 17.6754 14.5697 18.419 15.3048 19.7011C16.0398 20.9833 23.5008 20.8928 23.7503 16.6468C23.9997 12.4008 22.9852 11.8363 20.6244 12.5002C18.2636 13.1641 15.3862 15.0415 16.2528 16.3585Z" fill="white"/>
</g>
<path fill-rule="evenodd" clip-rule="evenodd" d="M21.3044 16.6084L22.781 15.1318C23.172 14.7408 23.1713 14.1079 22.781 13.7176C22.3907 13.3273 21.7578 13.3266 21.3668 13.7176L19.8902 15.1942L18.498 13.802C18.1077 13.4117 17.4748 13.411 17.0838 13.802C16.6927 14.1931 16.6935 14.8259 17.0838 15.2163L18.476 16.6084L17.119 17.9654C16.7279 18.3565 16.7286 18.9893 17.119 19.3796C17.5093 19.77 18.1422 19.7707 18.5332 19.3796L19.8902 18.0227L21.1924 19.3249C21.5827 19.7152 22.2156 19.7159 22.6066 19.3249C22.9977 18.9339 22.997 18.301 22.6066 17.9107L21.3044 16.6084Z" fill="#8F9BB3"/>
<mask id="mask1" style="mask-type:alpha" maskUnits="userSpaceOnUse" x="16" y="13" width="8" height="7">
<path fill-rule="evenodd" clip-rule="evenodd" d="M21.3044 16.6084L22.781 15.1318C23.172 14.7408 23.1713 14.1079 22.781 13.7176C22.3907 13.3273 21.7578 13.3266 21.3668 13.7176L19.8902 15.1942L18.498 13.802C18.1077 13.4117 17.4748 13.411 17.0838 13.802C16.6927 14.1931 16.6935 14.8259 17.0838 15.2163L18.476 16.6084L17.119 17.9654C16.7279 18.3565 16.7286 18.9893 17.119 19.3796C17.5093 19.77 18.1422 19.7707 18.5332 19.3796L19.8902 18.0227L21.1924 19.3249C21.5827 19.7152 22.2156 19.7159 22.6066 19.3249C22.9977 18.9339 22.997 18.301 22.6066 17.9107L21.3044 16.6084Z" fill="white"/>
</mask>
<g mask="url(#mask1)">
</g>
</svg>
