<svg width="25" height="25" viewBox="0 0 25 25" fill="none" xmlns="http://www.w3.org/2000/svg">
<path fill-rule="evenodd" clip-rule="evenodd" d="M4.279 21.5C4.74 21.5 5.141 21.185 5.251 20.737C6.14 17.088 9.271 14.452 13.046 14.053V15.174C13.046 15.88 13.465 16.509 14.138 16.814C14.87 17.147 15.722 17.027 16.315 16.51L21.382 12.086C21.774 11.742 22 11.255 22 10.75C22 10.245 21.774 9.758 21.382 9.414L16.315 4.99C15.722 4.473 14.87 4.353 14.138 4.686C13.465 4.991 13.046 5.62 13.046 6.326V7.544C7.422 8.037 3 12.65 3 18.25C3 19.06 3.103 19.896 3.307 20.736C3.416 21.185 3.817 21.5 4.279 21.5Z" fill="#8F9BB3"/>
<mask id="mask0" style="mask-type:alpha" maskUnits="userSpaceOnUse" x="3" y="4" width="19" height="18">
<path fill-rule="evenodd" clip-rule="evenodd" d="M4.279 21.5C4.74 21.5 5.141 21.185 5.251 20.737C6.14 17.088 9.271 14.452 13.046 14.053V15.174C13.046 15.88 13.465 16.509 14.138 16.814C14.87 17.147 15.722 17.027 16.315 16.51L21.382 12.086C21.774 11.742 22 11.255 22 10.75C22 10.245 21.774 9.758 21.382 9.414L16.315 4.99C15.722 4.473 14.87 4.353 14.138 4.686C13.465 4.991 13.046 5.62 13.046 6.326V7.544C7.422 8.037 3 12.65 3 18.25C3 19.06 3.103 19.896 3.307 20.736C3.416 21.185 3.817 21.5 4.279 21.5Z" fill="white"/>
</mask>
<g mask="url(#mask0)">
</g>
</svg>
