<svg width="24" height="25" viewBox="0 0 24 25" fill="none" xmlns="http://www.w3.org/2000/svg">
<path fill-rule="evenodd" clip-rule="evenodd" d="M8 10.5C8.828 10.5 9.5 9.828 9.5 9C9.5 8.172 8.828 7.5 8 7.5C7.172 7.5 6.5 8.172 6.5 9C6.5 9.828 7.172 10.5 8 10.5ZM6 5.5H18C18.552 5.5 19 5.948 19 6.5V14.864L15.797 12.132C14.807 11.29 13.258 11.29 12.277 12.126L5 18.198V6.5C5 5.948 5.448 5.5 6 5.5ZM18 3.5H6C4.346 3.5 3 4.846 3 6.5V18.5C3 20.154 4.346 21.5 6 21.5H18C19.654 21.5 21 20.154 21 18.5V6.5C21 4.846 19.654 3.5 18 3.5Z" fill="#8F9BB3"/>
<mask id="mask0" style="mask-type:alpha" maskUnits="userSpaceOnUse" x="3" y="3" width="18" height="19">
<path fill-rule="evenodd" clip-rule="evenodd" d="M8 10.5C8.828 10.5 9.5 9.828 9.5 9C9.5 8.172 8.828 7.5 8 7.5C7.172 7.5 6.5 8.172 6.5 9C6.5 9.828 7.172 10.5 8 10.5ZM6 5.5H18C18.552 5.5 19 5.948 19 6.5V14.864L15.797 12.132C14.807 11.29 13.258 11.29 12.277 12.126L5 18.198V6.5C5 5.948 5.448 5.5 6 5.5ZM18 3.5H6C4.346 3.5 3 4.846 3 6.5V18.5C3 20.154 4.346 21.5 6 21.5H18C19.654 21.5 21 20.154 21 18.5V6.5C21 4.846 19.654 3.5 18 3.5Z" fill="white"/>
</mask>
<g mask="url(#mask0)">
</g>
</svg>
