<svg width="25" height="25" viewBox="0 0 25 25" fill="none" xmlns="http://www.w3.org/2000/svg">
<path fill-rule="evenodd" clip-rule="evenodd" d="M20.721 21.5C20.26 21.5 19.859 21.185 19.749 20.737C18.86 17.088 15.729 14.452 11.954 14.053V15.174C11.954 15.88 11.535 16.509 10.862 16.814C10.13 17.147 9.278 17.027 8.685 16.51L3.618 12.086C3.226 11.742 3 11.255 3 10.75C3 10.245 3.226 9.758 3.618 9.414L8.685 4.99C9.278 4.473 10.13 4.353 10.862 4.686C11.535 4.991 11.954 5.62 11.954 6.326V7.544C17.578 8.037 22 12.65 22 18.25C22 19.06 21.897 19.896 21.693 20.736C21.584 21.185 21.183 21.5 20.721 21.5Z" fill="#8F9BB3"/>
<mask id="mask0" style="mask-type:alpha" maskUnits="userSpaceOnUse" x="3" y="4" width="19" height="18">
<path fill-rule="evenodd" clip-rule="evenodd" d="M20.721 21.5C20.26 21.5 19.859 21.185 19.749 20.737C18.86 17.088 15.729 14.452 11.954 14.053V15.174C11.954 15.88 11.535 16.509 10.862 16.814C10.13 17.147 9.278 17.027 8.685 16.51L3.618 12.086C3.226 11.742 3 11.255 3 10.75C3 10.245 3.226 9.758 3.618 9.414L8.685 4.99C9.278 4.473 10.13 4.353 10.862 4.686C11.535 4.991 11.954 5.62 11.954 6.326V7.544C17.578 8.037 22 12.65 22 18.25C22 19.06 21.897 19.896 21.693 20.736C21.584 21.185 21.183 21.5 20.721 21.5Z" fill="white"/>
</mask>
<g mask="url(#mask0)">
</g>
</svg>
