<svg width="25" height="25" viewBox="0 0 25 25" fill="none" xmlns="http://www.w3.org/2000/svg">
<path fill-rule="evenodd" clip-rule="evenodd" d="M3.5 7.5C3.5 6.948 3.948 6.5 4.5 6.5C5.052 6.5 5.5 6.948 5.5 7.5C5.5 8.052 5.052 8.5 4.5 8.5C3.948 8.5 3.5 8.052 3.5 7.5ZM3.5 12.5C3.5 11.948 3.948 11.5 4.5 11.5C5.052 11.5 5.5 11.948 5.5 12.5C5.5 13.052 5.052 13.5 4.5 13.5C3.948 13.5 3.5 13.052 3.5 12.5ZM4.5 16.5C3.948 16.5 3.5 16.948 3.5 17.5C3.5 18.052 3.948 18.5 4.5 18.5C5.052 18.5 5.5 18.052 5.5 17.5C5.5 16.948 5.052 16.5 4.5 16.5ZM8.4355 11.5H20.5645C21.0795 11.5 21.5005 11.921 21.5005 12.436V12.564C21.5005 13.079 21.0795 13.5 20.5645 13.5H8.4355C7.9205 13.5 7.5005 13.079 7.5005 12.564V12.436C7.5005 11.921 7.9205 11.5 8.4355 11.5ZM20.5645 16.5H8.4355C7.9205 16.5 7.5005 16.921 7.5005 17.436V17.564C7.5005 18.079 7.9205 18.5 8.4355 18.5H20.5645C21.0795 18.5 21.5005 18.079 21.5005 17.564V17.436C21.5005 16.921 21.0795 16.5 20.5645 16.5ZM8.4355 6.5H20.5645C21.0795 6.5 21.5005 6.921 21.5005 7.436V7.564C21.5005 8.079 21.0795 8.5 20.5645 8.5H8.4355C7.9205 8.5 7.5005 8.079 7.5005 7.564V7.436C7.5005 6.921 7.9205 6.5 8.4355 6.5Z" fill="#8F9BB3"/>
<mask id="mask0" style="mask-type:alpha" maskUnits="userSpaceOnUse" x="3" y="6" width="19" height="13">
<path fill-rule="evenodd" clip-rule="evenodd" d="M3.5 7.5C3.5 6.948 3.948 6.5 4.5 6.5C5.052 6.5 5.5 6.948 5.5 7.5C5.5 8.052 5.052 8.5 4.5 8.5C3.948 8.5 3.5 8.052 3.5 7.5ZM3.5 12.5C3.5 11.948 3.948 11.5 4.5 11.5C5.052 11.5 5.5 11.948 5.5 12.5C5.5 13.052 5.052 13.5 4.5 13.5C3.948 13.5 3.5 13.052 3.5 12.5ZM4.5 16.5C3.948 16.5 3.5 16.948 3.5 17.5C3.5 18.052 3.948 18.5 4.5 18.5C5.052 18.5 5.5 18.052 5.5 17.5C5.5 16.948 5.052 16.5 4.5 16.5ZM8.4355 11.5H20.5645C21.0795 11.5 21.5005 11.921 21.5005 12.436V12.564C21.5005 13.079 21.0795 13.5 20.5645 13.5H8.4355C7.9205 13.5 7.5005 13.079 7.5005 12.564V12.436C7.5005 11.921 7.9205 11.5 8.4355 11.5ZM20.5645 16.5H8.4355C7.9205 16.5 7.5005 16.921 7.5005 17.436V17.564C7.5005 18.079 7.9205 18.5 8.4355 18.5H20.5645C21.0795 18.5 21.5005 18.079 21.5005 17.564V17.436C21.5005 16.921 21.0795 16.5 20.5645 16.5ZM8.4355 6.5H20.5645C21.0795 6.5 21.5005 6.921 21.5005 7.436V7.564C21.5005 8.079 21.0795 8.5 20.5645 8.5H8.4355C7.9205 8.5 7.5005 8.079 7.5005 7.564V7.436C7.5005 6.921 7.9205 6.5 8.4355 6.5Z" fill="white"/>
</mask>
<g mask="url(#mask0)">
</g>
</svg>
